<svg width="278" height="86" viewBox="0 0 278 86" fill="none" xmlns="http://www.w3.org/2000/svg">
<path d="M101.626 27.1519C101.626 26.4135 102.806 25.2334 103.545 25.2334H126.382C128.152 25.2334 131.844 28.8253 131.844 30.5986V41.0323C131.844 42.8025 128.152 46.349 126.382 46.349H107.53V55.3061C107.53 55.9446 106.94 56.5377 106.298 56.5377H102.903C102.265 56.5377 101.623 55.9476 101.623 55.3061V27.1519H101.626ZM125.94 41.1291V30.4473H107.533V41.1291H125.94Z" fill="white"/>
<path d="M137.116 46.3941C137.116 44.6208 140.363 41.619 142.037 41.619H156.162V36.6957H139.722C139.083 36.6957 138.49 36.1056 138.49 35.4641V32.8556C138.49 32.2171 139.08 31.624 139.722 31.624H156.701C158.374 31.624 161.918 35.0192 161.918 36.6926V51.4597C161.918 53.1331 158.374 56.5283 156.701 56.5283H142.33C140.657 56.5283 137.113 53.1331 137.113 51.4597V46.3941H137.116ZM156.165 51.4627V45.9008H142.826V51.4627H156.165Z" fill="white"/>
<path d="M167.878 56.5342C167.239 56.5342 166.894 55.9926 166.894 55.4509C166.894 55.2058 167.043 54.8608 167.139 54.7126L174.375 44.9173C174.62 44.5239 175.013 44.1789 175.506 43.9822C175.013 43.834 174.62 43.4406 174.375 43.0956L167.091 33.4486C166.894 33.2519 166.746 32.9554 166.746 32.6619C166.746 32.1686 167.091 31.627 167.73 31.627H172.453L179.64 41.4706H181.265L188.5 31.627H193.175C193.814 31.627 194.159 32.1686 194.159 32.6619C194.159 32.9584 194.011 33.2519 193.862 33.4486L186.579 43.0956C186.282 43.4406 185.889 43.834 185.399 43.9822C185.892 44.1789 186.285 44.5239 186.579 44.9173L193.766 54.7126C193.862 54.8608 194.062 55.2058 194.062 55.4509C194.062 55.9926 193.669 56.5342 193.079 56.5342H188.355L181.268 46.5423H179.643L172.556 56.5342H167.878Z" fill="white"/>
<path d="M198.495 46.3941C198.495 44.6208 201.742 41.619 203.416 41.619H217.541V36.6957H201.101C200.462 36.6957 199.869 36.1056 199.869 35.4641V32.8556C199.869 32.2171 200.459 31.624 201.101 31.624H218.08C219.753 31.624 223.297 35.0192 223.297 36.6926V51.4597C223.297 53.1331 219.753 56.5283 218.08 56.5283H203.709C202.036 56.5283 198.492 53.1331 198.492 51.4597V46.3941H198.495ZM217.541 51.4627V45.9008H204.202V51.4627H217.541Z" fill="white"/>
<path d="M235.803 55.3025C235.803 55.941 235.212 56.5341 234.571 56.5341H231.273C230.683 56.5341 230.041 55.944 230.041 55.3025V36.6985C230.041 35.0735 233.584 31.6299 235.258 31.6299H246.333C246.972 31.6299 247.565 32.22 247.565 32.8615V35.4699C247.565 36.1084 246.975 36.7015 246.333 36.7015H235.8V55.3025H235.803Z" fill="white"/>
<path d="M251.9 36.6985C251.9 35.0251 255.444 31.6299 257.117 31.6299H271.784C273.506 31.6299 277.001 35.0251 277.001 36.6985V51.7106C277.001 53.384 273.458 56.5341 271.784 56.5341H257.117C255.444 56.5341 251.9 53.3356 251.9 51.6622V36.6985ZM271.246 51.4625V36.6955H257.662V51.4625H271.246Z" fill="white"/>
<path d="M35.8745 85.9634C16.0963 85.9634 0.00390625 69.8709 0.00390625 50.0928H14.8678C14.8678 61.6764 24.2908 71.1025 35.8775 71.1025V85.9634H35.8745Z" fill="white"/>
<path d="M35.8736 71.7442V56.8803C47.4573 56.8803 56.8833 47.4572 56.8833 35.8706C56.8833 24.2869 47.4603 14.8608 35.8736 14.8608C24.29 14.8608 14.8639 24.2839 14.8639 35.8706H0C0 16.0924 16.0924 0 35.8706 0C55.6487 0 71.7412 16.0924 71.7412 35.8706C71.7442 55.6517 55.6548 71.7442 35.8736 71.7442Z" fill="white"/>
</svg>
