<svg width="138" height="42" viewBox="0 0 138 42" fill="none" xmlns="http://www.w3.org/2000/svg">
<g clip-path="url(#clip0_845_586)">
<g filter="url(#filter0_d_845_586)">
<rect x="0.5" y="0.5" width="136.118" height="41" rx="8.76471" stroke="white"/>
<path d="M27.9248 20.7585C27.8896 17.7246 30.5687 16.2462 30.698 16.18C29.1821 14.1059 26.832 13.819 26.0094 13.797C24.0353 13.5984 22.12 14.9002 21.1211 14.9002C20.0988 14.9002 18.5477 13.808 16.8791 13.8411C14.7288 13.8742 12.7194 15.0437 11.6266 16.853C9.35869 20.5489 11.0508 25.9769 13.2247 28.9667C14.3175 30.4341 15.5866 32.0669 17.2552 32.0007C18.8885 31.9345 19.4996 31.0298 21.4619 31.0298C23.4125 31.0298 23.9766 32.0007 25.6804 31.9676C27.4313 31.9455 28.5358 30.5003 29.5817 29.0219C30.839 27.345 31.3443 25.6901 31.3678 25.6129C31.309 25.6018 27.9601 24.3993 27.9248 20.7585Z" fill="white"/>
<path d="M24.7169 11.8328C25.5982 10.8068 26.1975 9.40563 26.0212 7.98242C24.7522 8.03759 23.1658 8.80987 22.2493 9.81384C21.4385 10.6965 20.7217 12.1528 20.9097 13.5208C22.3315 13.6201 23.8004 12.8478 24.7169 11.8328Z" fill="white"/>
<path d="M48.5231 28.3051H42.9651L41.6255 32.012H39.2754L44.5397 18.3096H46.9838L52.2481 32.012H49.8509L48.5231 28.3051ZM43.5409 26.595H47.9473L45.7735 20.5823H45.7147L43.5409 26.595Z" fill="white"/>
<path d="M63.635 27.014C63.635 30.1142 61.8607 32.1111 59.1933 32.1111C57.6775 32.1111 56.4789 31.4712 55.8444 30.3679H55.7974V35.3105H53.6118V22.0163H55.7269V23.6822H55.7622C56.3732 22.612 57.6657 21.917 59.1463 21.917C61.8607 21.917 63.635 23.9139 63.635 27.014ZM61.3906 27.014C61.3906 24.9951 60.2743 23.6601 58.5823 23.6601C56.9137 23.6601 55.7857 25.0171 55.7857 27.014C55.7857 29.022 56.9137 30.379 58.5823 30.379C60.2743 30.379 61.3906 29.0551 61.3906 27.014Z" fill="white"/>
<path d="M75.3373 27.014C75.3373 30.1142 73.5629 32.1111 70.8955 32.1111C69.3797 32.1111 68.1811 31.4712 67.5466 30.3679H67.4996V35.3105H65.3257V22.0163H67.4408V23.6822H67.4761C68.0871 22.612 69.3797 21.917 70.8603 21.917C73.5629 21.917 75.3373 23.9139 75.3373 27.014ZM73.0929 27.014C73.0929 24.9951 71.9766 23.6601 70.2845 23.6601C68.6159 23.6601 67.4878 25.0171 67.4878 27.014C67.4878 29.022 68.6159 30.379 70.2845 30.379C71.9883 30.379 73.0929 29.0551 73.0929 27.014Z" fill="white"/>
<path d="M83.0813 28.195C83.2458 29.552 84.6441 30.4456 86.5712 30.4456C88.4161 30.4456 89.7321 29.552 89.7321 28.3274C89.7321 27.2683 88.9331 26.6284 87.0412 26.1871L85.1494 25.7568C82.4702 25.15 81.2247 23.9695 81.2247 22.0609C81.2247 19.6999 83.422 18.0781 86.536 18.0781C89.6146 18.0781 91.7297 19.6999 91.8002 22.0609H89.5911C89.4619 20.6928 88.2516 19.8654 86.5007 19.8654C84.7499 19.8654 83.5395 20.7039 83.5395 21.9175C83.5395 22.8883 84.3033 23.451 86.1834 23.8923L87.7933 24.2674C90.7897 24.9294 92.0353 26.0657 92.0353 28.0626C92.0353 30.6222 89.8614 32.2329 86.4067 32.2329C83.1753 32.2329 80.9896 30.6663 80.8486 28.184H83.0813V28.195Z" fill="white"/>
<path d="M96.7596 19.6548V22.0158H98.7807V23.6375H96.7596V29.1428C96.7596 30.0033 97.1591 30.4005 98.0522 30.4005C98.2754 30.4005 98.6279 30.3674 98.7689 30.3564V31.9671C98.5222 32.0223 98.0404 32.0664 97.5587 32.0664C95.4083 32.0664 94.5623 31.3052 94.5623 29.3745V23.6486H93.0112V22.0268H94.5623V19.6548H96.7596Z" fill="white"/>
<path d="M99.9429 27.0136C99.9429 23.8694 101.917 21.8945 104.984 21.8945C108.063 21.8945 110.025 23.8694 110.025 27.0136C110.025 30.1689 108.074 32.1327 104.984 32.1327C101.905 32.1327 99.9429 30.1689 99.9429 27.0136ZM107.816 27.0136C107.816 24.8623 106.758 23.5825 104.996 23.5825C103.233 23.5825 102.176 24.8623 102.176 27.0136C102.176 29.176 103.221 30.4447 104.996 30.4447C106.77 30.4447 107.816 29.176 107.816 27.0136Z" fill="white"/>
<path d="M111.848 22.0166H113.928V23.7156H113.975C114.304 22.5903 115.279 21.9062 116.536 21.9062C116.853 21.9062 117.112 21.9504 117.288 21.9835V23.9031C117.112 23.8369 116.736 23.7818 116.313 23.7818C114.903 23.7818 114.033 24.6754 114.033 26.0765V32.001H111.848V22.0166V22.0166Z" fill="white"/>
<path d="M127.347 29.0767C127.053 30.886 125.173 32.1327 122.764 32.1327C119.674 32.1327 117.747 30.191 117.747 27.0578C117.747 23.9245 119.674 21.8945 122.67 21.8945C125.608 21.8945 127.464 23.7921 127.464 26.8261V27.5321H119.956V27.6535C119.956 29.3635 121.095 30.4778 122.823 30.4778C124.033 30.4778 124.985 29.9372 125.279 29.0767H127.347V29.0767ZM119.967 26.0869H125.29C125.243 24.5534 124.198 23.5494 122.682 23.5494C121.178 23.5604 120.085 24.5865 119.967 26.0869Z" fill="white"/>
<path d="M43.2721 7.99463C45.352 7.99463 46.5741 9.19718 46.5741 11.2603C46.5741 13.3675 45.3637 14.5701 43.2721 14.5701H40.7339V7.99463H43.2721ZM41.8267 13.6433H43.1428C44.6117 13.6433 45.4577 12.7828 45.4577 11.2713C45.4577 9.78191 44.5999 8.92137 43.1428 8.92137H41.8267V13.6433Z" fill="white"/>
<path d="M47.7969 12.0875C47.7969 10.4878 48.7487 9.50586 50.288 9.50586C51.8274 9.50586 52.7792 10.4767 52.7792 12.0875C52.7792 13.6983 51.8274 14.6692 50.288 14.6692C48.7487 14.6692 47.7969 13.6983 47.7969 12.0875ZM51.7099 12.0875C51.7099 11.0063 51.1928 10.3774 50.288 10.3774C49.3832 10.3774 48.8662 11.0063 48.8662 12.0875C48.8662 13.1687 49.3715 13.7976 50.288 13.7976C51.2046 13.7976 51.7099 13.1687 51.7099 12.0875Z" fill="white"/>
<path d="M59.4177 14.5809H58.3367L57.2439 10.9181H57.1616L56.0688 14.5809H54.9995L53.5425 9.61621H54.6L55.5518 13.4114H55.6341L56.7269 9.61621H57.7257L58.8185 13.4114H58.9007L59.8408 9.61621H60.8866L59.4177 14.5809Z" fill="white"/>
<path d="M62.0957 9.60584H63.1063V10.4002H63.1885C63.447 9.84856 63.9758 9.51758 64.7631 9.51758C65.9382 9.51758 66.5963 10.1795 66.5963 11.36V14.5816H65.5504V11.6138C65.5504 10.8194 65.1862 10.4223 64.4106 10.4223C63.6351 10.4223 63.1415 10.9077 63.1415 11.68V14.5816H62.0957V9.60584V9.60584Z" fill="white"/>
<path d="M68.2544 7.6748H69.3003V14.5812H68.2544V7.6748Z" fill="white"/>
<path d="M70.7573 12.0875C70.7573 10.4878 71.7091 9.50586 73.2484 9.50586C74.7877 9.50586 75.7395 10.4767 75.7395 12.0875C75.7395 13.6983 74.7877 14.6692 73.2484 14.6692C71.6974 14.6692 70.7573 13.6983 70.7573 12.0875ZM74.6702 12.0875C74.6702 11.0063 74.1532 10.3774 73.2484 10.3774C72.3436 10.3774 71.8266 11.0063 71.8266 12.0875C71.8266 13.1687 72.3319 13.7976 73.2484 13.7976C74.1532 13.7976 74.6702 13.1687 74.6702 12.0875Z" fill="white"/>
<path d="M76.8433 13.1694C76.8433 12.2757 77.5483 11.7572 78.8056 11.691L80.2392 11.6138V11.1835C80.2392 10.6539 79.8749 10.3671 79.1581 10.3671C78.5706 10.3671 78.1711 10.5657 78.0536 10.9187H77.043C77.1488 10.0692 78.0066 9.51758 79.2051 9.51758C80.5329 9.51758 81.285 10.1354 81.285 11.1835V14.5816H80.2744V13.8865H80.1922C79.8749 14.383 79.2991 14.6698 78.6058 14.6698C77.5835 14.6588 76.8433 14.0851 76.8433 13.1694ZM80.2509 12.7501V12.3309L78.9584 12.4081C78.2298 12.4523 77.9008 12.684 77.9008 13.1253C77.9008 13.5776 78.3121 13.8314 78.8761 13.8314C79.6634 13.8314 80.2509 13.368 80.2509 12.7501Z" fill="white"/>
<path d="M82.6602 12.0878C82.6602 10.5212 83.518 9.52828 84.8575 9.52828C85.5861 9.52828 86.1971 9.84823 86.4791 10.3999H86.5614V7.6748H87.6072V14.5812H86.5966V13.7979H86.5144C86.1971 14.3385 85.5861 14.6695 84.8575 14.6695C83.5062 14.6584 82.6602 13.6655 82.6602 12.0878ZM83.7412 12.0878C83.7412 13.147 84.27 13.7758 85.1513 13.7758C86.0326 13.7758 86.5731 13.1359 86.5731 12.0878C86.5731 11.0508 86.0208 10.3999 85.1513 10.3999C84.27 10.4109 83.7412 11.0508 83.7412 12.0878Z" fill="white"/>
<path d="M91.9204 12.0875C91.9204 10.4878 92.8722 9.50586 94.4116 9.50586C95.9509 9.50586 96.9027 10.4767 96.9027 12.0875C96.9027 13.6983 95.9509 14.6692 94.4116 14.6692C92.8722 14.6692 91.9204 13.6983 91.9204 12.0875ZM95.8334 12.0875C95.8334 11.0063 95.3164 10.3774 94.4116 10.3774C93.5067 10.3774 92.9897 11.0063 92.9897 12.0875C92.9897 13.1687 93.495 13.7976 94.4116 13.7976C95.3164 13.7976 95.8334 13.1687 95.8334 12.0875Z" fill="white"/>
<path d="M98.3115 9.60584H99.3221V10.4002H99.4043C99.6629 9.84856 100.192 9.51758 100.979 9.51758C102.154 9.51758 102.812 10.1795 102.812 11.36V14.5816H101.766V11.6138C101.766 10.8194 101.402 10.4223 100.626 10.4223C99.8509 10.4223 99.3573 10.9077 99.3573 11.68V14.5816H98.3115V9.60584Z" fill="white"/>
<path d="M108.713 8.37012V9.62782H109.865V10.4553H108.713V13.0148C108.713 13.5333 108.936 13.765 109.465 13.765C109.63 13.765 109.712 13.754 109.865 13.7429V14.5594C109.7 14.5814 109.5 14.6145 109.301 14.6145C108.137 14.6145 107.679 14.2284 107.679 13.2686V10.4663H106.845V9.63886H107.679V8.37012H108.713Z" fill="white"/>
<path d="M111.272 7.6748H112.307V10.4109H112.389C112.647 9.85926 113.2 9.51725 113.999 9.51725C115.127 9.51725 115.82 10.1902 115.82 11.3707V14.5812H114.774V11.6134C114.774 10.8191 114.386 10.4219 113.646 10.4219C112.788 10.4219 112.318 10.9294 112.318 11.6796V14.5812H111.272V7.6748Z" fill="white"/>
<path d="M121.92 13.2356C121.685 14.1292 120.839 14.6698 119.629 14.6698C118.113 14.6698 117.185 13.699 117.185 12.1103C117.185 10.5216 118.137 9.51758 119.629 9.51758C121.098 9.51758 121.991 10.4664 121.991 12.022V12.364H118.254V12.4192C118.29 13.2907 118.83 13.8424 119.664 13.8424C120.299 13.8424 120.734 13.6328 120.922 13.2356H121.92ZM118.254 11.6358H120.922C120.898 10.8525 120.393 10.345 119.617 10.345C118.842 10.345 118.313 10.8636 118.254 11.6358Z" fill="white"/>
</g>
</g>
<defs>
<filter id="filter0_d_845_586" x="-14.2059" y="-10.5" width="165.529" height="70.4118" filterUnits="userSpaceOnUse" color-interpolation-filters="sRGB">
<feFlood flood-opacity="0" result="BackgroundImageFix"/>
<feColorMatrix in="SourceAlpha" type="matrix" values="0 0 0 0 0 0 0 0 0 0 0 0 0 0 0 0 0 0 127 0" result="hardAlpha"/>
<feOffset dy="3.70588"/>
<feGaussianBlur stdDeviation="7.10294"/>
<feComposite in2="hardAlpha" operator="out"/>
<feColorMatrix type="matrix" values="0 0 0 0 0 0 0 0 0 0 0 0 0 0 0 0 0 0 0.08 0"/>
<feBlend mode="normal" in2="BackgroundImageFix" result="effect1_dropShadow_845_586"/>
<feBlend mode="normal" in="SourceGraphic" in2="effect1_dropShadow_845_586" result="shape"/>
</filter>
<clipPath id="clip0_845_586">
<rect width="137.118" height="42" fill="white"/>
</clipPath>
</defs>
</svg>
