<svg width="173" height="54" viewBox="0 0 173 54" fill="none" xmlns="http://www.w3.org/2000/svg">
<g clip-path="url(#clip0_970_370)">
<g filter="url(#filter0_d_970_370)">
<rect y="0.414062" width="172.937" height="52.9718" rx="11.6849" fill="white"/>
<path d="M35.2206 26.5932C35.1761 22.7667 38.5551 20.9022 38.7182 20.8187C36.8063 18.2027 33.8423 17.8409 32.8048 17.8131C30.315 17.5626 27.8993 19.2046 26.6396 19.2046C25.3502 19.2046 23.3939 17.827 21.2894 17.8688C18.5773 17.9105 16.043 19.3855 14.6647 21.6675C11.8044 26.3289 13.9385 33.1748 16.6803 36.9457C18.0586 38.7964 19.6592 40.8557 21.7637 40.7722C23.8237 40.6887 24.5944 39.5477 27.0694 39.5477C29.5295 39.5477 30.2409 40.7722 32.3899 40.7305C34.5981 40.7027 35.9912 38.8798 37.3102 37.0153C38.896 34.9003 39.5333 32.8131 39.5629 32.7157C39.4888 32.7018 35.265 31.1851 35.2206 26.5932Z" fill="black"/>
<path d="M31.1745 15.3377C32.286 14.0436 33.0418 12.2764 32.8195 10.4814C31.2189 10.551 29.2182 11.525 28.0622 12.7913C27.0396 13.9045 26.1355 15.7412 26.3727 17.4666C28.1659 17.5919 30.0185 16.6178 31.1745 15.3377Z" fill="black"/>
<path d="M61.2007 36.1109H54.1907L52.5012 40.7862H49.5371L56.1766 23.5043H59.2592L65.8987 40.7862H62.8753L61.2007 36.1109ZM54.9169 33.9541H60.4745L57.7327 26.3707H57.6586L54.9169 33.9541Z" fill="black"/>
<path d="M80.2607 34.4823C80.2607 38.3923 78.0229 40.9108 74.6587 40.9108C72.7469 40.9108 71.2352 40.1038 70.435 38.7123H70.3757V44.9461H67.6191V28.1789H70.2868V30.2801H70.3312C71.1019 28.9303 72.7321 28.0537 74.5994 28.0537C78.0229 28.0537 80.2607 30.5723 80.2607 34.4823ZM77.4301 34.4823C77.4301 31.9359 76.0221 30.2522 73.888 30.2522C71.7836 30.2522 70.3609 31.9637 70.3609 34.4823C70.3609 37.0147 71.7836 38.7262 73.888 38.7262C76.0221 38.7262 77.4301 37.0565 77.4301 34.4823Z" fill="black"/>
<path d="M95.0195 34.4823C95.0195 38.3923 92.7816 40.9108 89.4174 40.9108C87.5056 40.9108 85.9939 40.1038 85.1936 38.7123H85.1343V44.9461H82.3926V28.1789H85.0602V30.2801H85.1047C85.8754 28.9303 87.5056 28.0537 89.373 28.0537C92.7816 28.0537 95.0195 30.5723 95.0195 34.4823ZM92.1888 34.4823C92.1888 31.9359 90.7809 30.2522 88.6468 30.2522C86.5423 30.2522 85.1195 31.9637 85.1195 34.4823C85.1195 37.0147 86.5423 38.7262 88.6468 38.7262C90.7957 38.7262 92.1888 37.0565 92.1888 34.4823Z" fill="black"/>
<path d="M104.787 35.9716C104.995 37.6831 106.758 38.8102 109.189 38.8102C111.515 38.8102 113.175 37.6831 113.175 36.1386C113.175 34.8028 112.168 33.9958 109.781 33.4392L107.395 32.8965C104.016 32.1312 102.445 30.6423 102.445 28.2351C102.445 25.2574 105.217 23.2119 109.144 23.2119C113.027 23.2119 115.695 25.2574 115.784 28.2351H112.998C112.834 26.5097 111.308 25.4661 109.1 25.4661C106.892 25.4661 105.365 26.5236 105.365 28.0542C105.365 29.2787 106.328 29.9883 108.7 30.5449L110.73 31.018C114.509 31.8529 116.08 33.2861 116.08 35.8047C116.08 39.0329 113.338 41.0644 108.981 41.0644C104.906 41.0644 102.149 39.0885 101.971 35.9577H104.787V35.9716Z" fill="black"/>
<path d="M122.038 25.2012V28.1789H124.587V30.2244H122.038V37.1677C122.038 38.2531 122.542 38.754 123.668 38.754C123.95 38.754 124.395 38.7123 124.572 38.6984V40.7299C124.261 40.7995 123.654 40.8551 123.046 40.8551C120.334 40.8551 119.267 39.895 119.267 37.46V30.2383H117.311V28.1928H119.267V25.2012H122.038Z" fill="black"/>
<path d="M126.055 34.4827C126.055 30.5171 128.545 28.0264 132.413 28.0264C136.296 28.0264 138.771 30.5171 138.771 34.4827C138.771 38.4623 136.31 40.9391 132.413 40.9391C128.53 40.9391 126.055 38.4623 126.055 34.4827ZM135.984 34.4827C135.984 31.7694 134.651 30.1553 132.427 30.1553C130.204 30.1553 128.871 31.7694 128.871 34.4827C128.871 37.21 130.19 38.8102 132.427 38.8102C134.665 38.8102 135.984 37.21 135.984 34.4827Z" fill="black"/>
<path d="M141.068 28.1792H143.692V30.322H143.751C144.166 28.9027 145.396 28.04 146.982 28.04C147.382 28.04 147.708 28.0957 147.93 28.1374V30.5586C147.708 30.4751 147.234 30.4055 146.7 30.4055C144.922 30.4055 143.825 31.5326 143.825 33.2997V40.7719H141.068V28.1792V28.1792Z" fill="black"/>
<path d="M160.616 37.0848C160.245 39.3667 157.874 40.9391 154.836 40.9391C150.938 40.9391 148.508 38.4901 148.508 34.5384C148.508 30.5866 150.938 28.0264 154.717 28.0264C158.423 28.0264 160.764 30.4197 160.764 34.2462V35.1367H151.294V35.2898C151.294 37.4465 152.732 38.8519 154.91 38.8519C156.437 38.8519 157.637 38.1701 158.008 37.0848H160.616V37.0848ZM151.309 33.3139H158.022C157.963 31.3798 156.644 30.1136 154.732 30.1136C152.835 30.1275 151.457 31.4215 151.309 33.3139Z" fill="black"/>
<path d="M54.5762 10.4951C57.1995 10.4951 58.7408 12.0118 58.7408 14.6139C58.7408 17.2716 57.2143 18.7883 54.5762 18.7883H51.375V10.4951H54.5762ZM52.7533 17.6194H54.4132C56.2658 17.6194 57.3329 16.5341 57.3329 14.6278C57.3329 12.7493 56.251 11.664 54.4132 11.664H52.7533V17.6194Z" fill="black"/>
<path d="M60.2832 15.6564C60.2832 13.6388 61.4837 12.4004 63.4251 12.4004C65.3666 12.4004 66.567 13.6249 66.567 15.6564C66.567 17.688 65.3666 18.9125 63.4251 18.9125C61.4837 18.9125 60.2832 17.688 60.2832 15.6564ZM65.2184 15.6564C65.2184 14.2928 64.5663 13.4997 63.4251 13.4997C62.284 13.4997 61.6319 14.2928 61.6319 15.6564C61.6319 17.0201 62.2691 17.8132 63.4251 17.8132C64.5811 17.8132 65.2184 17.0201 65.2184 15.6564Z" fill="black"/>
<path d="M74.9394 18.8026H73.5759L72.1976 14.1829H72.0939L70.7156 18.8026H69.367L67.5293 12.541H68.8631L70.0635 17.3276H70.1673L71.5456 12.541H72.8053L74.1836 17.3276H74.2873L75.4729 12.541H76.7919L74.9394 18.8026Z" fill="black"/>
<path d="M78.3184 12.5254H79.5929V13.5272H79.6967C80.0227 12.8315 80.6896 12.4141 81.6826 12.4141C83.1647 12.4141 83.9946 13.2489 83.9946 14.7378V18.8009H82.6756V15.0579C82.6756 14.056 82.2162 13.5551 81.238 13.5551C80.2598 13.5551 79.6374 14.1673 79.6374 15.1413V18.8009H78.3184V12.5254V12.5254Z" fill="black"/>
<path d="M86.084 10.0908H87.4031V18.8014H86.084V10.0908Z" fill="black"/>
<path d="M89.2422 15.6564C89.2422 13.6388 90.4426 12.4004 92.384 12.4004C94.3254 12.4004 95.5258 13.6249 95.5258 15.6564C95.5258 17.688 94.3254 18.9125 92.384 18.9125C90.4278 18.9125 89.2422 17.688 89.2422 15.6564ZM94.1772 15.6564C94.1772 14.2928 93.5252 13.4997 92.384 13.4997C91.2429 13.4997 90.5908 14.2928 90.5908 15.6564C90.5908 17.0201 91.2281 17.8132 92.384 17.8132C93.5252 17.8132 94.1772 17.0201 94.1772 15.6564Z" fill="black"/>
<path d="M96.918 17.0198C96.918 15.8928 97.8072 15.2388 99.3929 15.1553L101.201 15.0579V14.5152C101.201 13.8473 100.742 13.4855 99.8375 13.4855C99.0965 13.4855 98.5926 13.736 98.4444 14.1812H97.1699C97.3033 13.1098 98.3852 12.4141 99.8968 12.4141C101.572 12.4141 102.52 13.1933 102.52 14.5152V18.8009H101.245V17.9243H101.142C100.742 18.5505 100.015 18.9123 99.141 18.9123C97.8516 18.8983 96.918 18.1748 96.918 17.0198ZM101.216 16.4911V15.9623L99.5856 16.0597C98.6667 16.1154 98.2518 16.4076 98.2518 16.9642C98.2518 17.5347 98.7705 17.8547 99.4819 17.8547C100.475 17.8547 101.216 17.2703 101.216 16.4911Z" fill="black"/>
<path d="M104.254 15.6567C104.254 13.6808 105.336 12.4285 107.025 12.4285C107.944 12.4285 108.715 12.832 109.07 13.5277H109.174V10.0908H110.493V18.8014H109.219V17.8135H109.115C108.715 18.4953 107.944 18.9127 107.025 18.9127C105.321 18.8988 104.254 17.6465 104.254 15.6567ZM105.617 15.6567C105.617 16.9925 106.284 17.7856 107.396 17.7856C108.507 17.7856 109.189 16.9786 109.189 15.6567C109.189 14.3487 108.493 13.5277 107.396 13.5277C106.284 13.5417 105.617 14.3487 105.617 15.6567Z" fill="black"/>
<path d="M115.932 15.6564C115.932 13.6388 117.132 12.4004 119.074 12.4004C121.015 12.4004 122.215 13.6249 122.215 15.6564C122.215 17.688 121.015 18.9125 119.074 18.9125C117.132 18.9125 115.932 17.688 115.932 15.6564ZM120.867 15.6564C120.867 14.2928 120.215 13.4997 119.074 13.4997C117.932 13.4997 117.28 14.2928 117.28 15.6564C117.28 17.0201 117.918 17.8132 119.074 17.8132C120.215 17.8132 120.867 17.0201 120.867 15.6564Z" fill="black"/>
<path d="M123.994 12.5254H125.269V13.5272H125.372C125.698 12.8315 126.365 12.4141 127.358 12.4141C128.84 12.4141 129.67 13.2489 129.67 14.7378V18.8009H128.351V15.0579C128.351 14.056 127.892 13.5551 126.914 13.5551C125.936 13.5551 125.313 14.1673 125.313 15.1413V18.8009H123.994V12.5254Z" fill="black"/>
<path d="M137.111 10.9672V12.5534H138.563V13.597H137.111V16.8252C137.111 17.4792 137.392 17.7714 138.059 17.7714C138.267 17.7714 138.371 17.7575 138.563 17.7436V18.7732C138.356 18.8011 138.104 18.8428 137.852 18.8428C136.385 18.8428 135.807 18.3558 135.807 17.1452V13.6109H134.754V12.5673H135.807V10.9672H137.111Z" fill="black"/>
<path d="M140.341 10.0908H141.646V13.5417H141.749C142.075 12.8459 142.772 12.4146 143.78 12.4146C145.202 12.4146 146.077 13.2634 146.077 14.7522V18.8014H144.758V15.0583C144.758 14.0565 144.269 13.5556 143.335 13.5556C142.253 13.5556 141.66 14.1956 141.66 15.1418V18.8014H140.341V10.0908Z" fill="black"/>
<path d="M153.769 17.1033C153.473 18.2304 152.406 18.9123 150.879 18.9123C148.968 18.9123 147.797 17.6878 147.797 15.684C147.797 13.6803 148.997 12.4141 150.879 12.4141C152.732 12.4141 153.858 13.6107 153.858 15.5727V16.0041H149.145V16.0736C149.19 17.1729 149.872 17.8686 150.924 17.8686C151.724 17.8686 152.272 17.6043 152.51 17.1033H153.769ZM149.145 15.0857H152.51C152.48 14.0977 151.843 13.4577 150.865 13.4577C149.886 13.4577 149.22 14.1117 149.145 15.0857Z" fill="black"/>
</g>
</g>
<defs>
<filter id="filter0_d_970_370" x="-17.9169" y="-12.8289" width="208.771" height="88.8056" filterUnits="userSpaceOnUse" color-interpolation-filters="sRGB">
<feFlood flood-opacity="0" result="BackgroundImageFix"/>
<feColorMatrix in="SourceAlpha" type="matrix" values="0 0 0 0 0 0 0 0 0 0 0 0 0 0 0 0 0 0 127 0" result="hardAlpha"/>
<feOffset dy="4.67398"/>
<feGaussianBlur stdDeviation="8.95846"/>
<feComposite in2="hardAlpha" operator="out"/>
<feColorMatrix type="matrix" values="0 0 0 0 0 0 0 0 0 0 0 0 0 0 0 0 0 0 0.08 0"/>
<feBlend mode="normal" in2="BackgroundImageFix" result="effect1_dropShadow_970_370"/>
<feBlend mode="normal" in="SourceGraphic" in2="effect1_dropShadow_970_370" result="shape"/>
</filter>
<clipPath id="clip0_970_370">
<rect width="172.937" height="52.9718" fill="white" transform="translate(0 0.414062)"/>
</clipPath>
</defs>
</svg>
