<svg width="227" height="89" viewBox="0 0 227 89" fill="none" xmlns="http://www.w3.org/2000/svg">
<g filter="url(#filter0_d_705_293)">
<rect x="18.146" y="13.4141" width="190.854" height="52.9718" rx="11.6849" fill="white"/>
<path d="M113.758 41.5465C110.432 41.5465 107.715 43.9169 107.715 47.1747C107.715 50.4192 110.432 52.803 113.758 52.803C117.084 52.803 119.801 50.4192 119.801 47.1747C119.801 43.9169 117.084 41.5465 113.758 41.5465ZM113.758 50.5914C111.932 50.5914 110.362 49.1876 110.362 47.1747C110.362 45.1485 111.932 43.758 113.758 43.758C115.584 43.758 117.155 45.1485 117.155 47.1747C117.155 49.1876 115.57 50.5914 113.758 50.5914ZM100.568 41.5465C97.2425 41.5465 94.5253 43.9169 94.5253 47.1747C94.5253 50.4192 97.2425 52.803 100.568 52.803C103.894 52.803 106.611 50.4192 106.611 47.1747C106.611 43.9169 103.894 41.5465 100.568 41.5465ZM100.568 50.5914C98.7427 50.5914 97.1718 49.1876 97.1718 47.1747C97.1718 45.1485 98.7427 43.758 100.568 43.758C102.394 43.758 103.965 45.1485 103.965 47.1747C103.965 49.1876 102.394 50.5914 100.568 50.5914ZM84.8877 43.2813V45.665H91.0014C90.8175 47.0026 90.3363 47.9958 89.6145 48.6712C88.7229 49.5055 87.336 50.4192 84.9019 50.4192C81.1374 50.4192 78.1937 47.5852 78.1937 44.0626C78.1937 40.54 81.1374 37.706 84.9019 37.706C86.9256 37.706 88.4116 38.4476 89.5013 39.4143L91.2986 37.7325C89.7702 36.3685 87.7464 35.3223 84.8877 35.3223C79.7363 35.3223 75.4058 39.2422 75.4058 44.0759C75.4058 48.8963 79.7363 52.8295 84.8877 52.8295C87.6757 52.8295 89.7702 51.9819 91.4118 50.3795C93.0959 48.8036 93.6196 46.5788 93.6196 44.791C93.6196 44.2348 93.5771 43.7183 93.4781 43.2945H84.8877V43.2813ZM149.011 45.1353C148.516 43.8772 146.987 41.5465 143.86 41.5465C140.76 41.5465 138.185 43.8242 138.185 47.1747C138.185 50.3265 140.732 52.803 144.157 52.803C146.917 52.803 148.516 51.2271 149.167 50.3133L147.115 49.0287C146.435 49.969 145.501 50.5914 144.157 50.5914C142.812 50.5914 141.85 50.0087 141.242 48.8831L149.294 45.771L149.011 45.1353ZM140.803 47.0158C140.732 44.844 142.6 43.7315 143.945 43.7315C144.992 43.7315 145.883 44.2215 146.181 44.9234L140.803 47.0158ZM134.265 52.4719H136.911V35.9182H134.265V52.4719ZM129.934 42.8045H129.835C129.241 42.1424 128.108 41.5465 126.665 41.5465C123.65 41.5465 120.891 44.0229 120.891 47.2012C120.891 50.353 123.65 52.8162 126.665 52.8162C128.094 52.8162 129.241 52.2203 129.835 51.5317H129.92V52.3395C129.92 54.4981 128.689 55.6502 126.707 55.6502C125.094 55.6502 124.089 54.5643 123.679 53.6505L121.372 54.551C122.037 56.0475 123.792 57.875 126.707 57.875C129.807 57.875 132.425 56.1667 132.425 52.0084V41.8908H129.92V42.8045H129.934ZM126.891 50.5914C125.066 50.5914 123.537 49.1612 123.537 47.2012C123.537 45.2148 125.066 43.7713 126.891 43.7713C128.689 43.7713 130.104 45.228 130.104 47.2012C130.118 49.1612 128.703 50.5914 126.891 50.5914ZM161.408 35.9182H155.082V52.4719H157.729V46.1947H161.423C164.352 46.1947 167.225 44.2083 167.225 41.0565C167.225 37.9046 164.324 35.9182 161.408 35.9182ZM161.465 43.8905H157.715V38.2092H161.465C163.446 38.2092 164.564 39.7454 164.564 41.0432C164.564 42.341 163.446 43.8905 161.465 43.8905ZM177.797 41.52C175.886 41.52 173.905 42.3145 173.084 44.0494L175.433 44.9631C175.928 44.0494 176.863 43.7448 177.839 43.7448C179.212 43.7448 180.599 44.5129 180.613 45.8769V46.0491C180.132 45.7974 179.113 45.4134 177.853 45.4134C175.32 45.4134 172.758 46.7112 172.758 49.1347C172.758 51.3462 174.825 52.7765 177.146 52.7765C178.915 52.7765 179.905 52.0349 180.514 51.1608H180.599V52.4454H183.146V46.102C183.16 43.1621 180.811 41.52 177.797 41.52ZM177.471 50.5914C176.608 50.5914 175.405 50.1809 175.405 49.1876C175.405 47.9163 176.905 47.4263 178.207 47.4263C179.367 47.4263 179.919 47.6647 180.613 47.9825C180.415 49.5055 178.999 50.5914 177.471 50.5914ZM192.444 41.8775L189.415 49.0552H189.331L186.189 41.8775H183.344L188.057 51.9157L185.368 57.491H188.128L195.388 41.8775H192.444ZM168.668 52.4719H171.315V35.9182H168.668V52.4719Z" fill="black"/>
<path d="M84.4336 26.3041C84.4336 27.4165 84.0798 28.3038 83.3722 28.9527C82.5797 29.734 81.5324 30.1313 80.2587 30.1313C79.0275 30.1313 77.9944 29.734 77.1311 28.9394C76.2678 28.1448 75.8433 27.1516 75.8433 25.9862C75.8433 24.8076 76.2678 23.8276 77.1311 23.0331C77.9944 22.2385 79.0275 21.8412 80.2587 21.8412C80.8673 21.8412 81.4475 21.9471 81.9995 22.1723C82.5514 22.3974 82.9901 22.6887 83.3298 23.0595L82.5797 23.7614C82.0136 23.139 81.2494 22.8212 80.2587 22.8212C79.3672 22.8212 78.5888 23.1125 77.9378 23.7084C77.2868 24.2911 76.9613 25.0592 76.9613 25.9995C76.9613 26.9397 77.2868 27.7078 77.9378 28.2905C78.5888 28.8732 79.3672 29.1778 80.2587 29.1778C81.2069 29.1778 81.9995 28.8864 82.6363 28.2905C83.0467 27.9065 83.2873 27.3635 83.3439 26.6749H80.2587V25.7081H84.377C84.4053 25.92 84.4336 26.1187 84.4336 26.3041Z" fill="black" stroke="white" stroke-width="0.268319" stroke-miterlimit="10"/>
<path d="M90.9573 22.9917H87.0937V25.5079H90.5752V26.4613H87.0937V28.9775H90.9573V29.9575H86.0039V22.0117H90.9573V22.9917Z" fill="black" stroke="white" stroke-width="0.268319" stroke-miterlimit="10"/>
<path d="M95.5571 29.9575H94.4674V22.9917H92.0898V22.0117H97.9206V22.9917H95.543V29.9575H95.5571Z" fill="black" stroke="white" stroke-width="0.268319" stroke-miterlimit="10"/>
<path d="M102.152 29.9575V22.0117H103.242V29.9575H102.152Z" fill="black" stroke="white" stroke-width="0.268319" stroke-miterlimit="10"/>
<path d="M108.081 29.9575H106.991V22.9917H104.614V22.0117H110.444V22.9917H108.067V29.9575H108.081Z" fill="black" stroke="white" stroke-width="0.268319" stroke-miterlimit="10"/>
<path d="M121.497 28.9258C120.662 29.7336 119.629 30.1309 118.384 30.1309C117.138 30.1309 116.105 29.7336 115.27 28.9258C114.435 28.118 114.025 27.138 114.025 25.9859C114.025 24.8337 114.435 23.8405 115.27 23.0459C116.105 22.2381 117.138 21.8408 118.384 21.8408C119.615 21.8408 120.648 22.2381 121.497 23.0459C122.332 23.8538 122.757 24.8337 122.757 25.9859C122.743 27.1512 122.332 28.1312 121.497 28.9258ZM116.077 28.2637C116.7 28.8596 117.478 29.1509 118.384 29.1509C119.289 29.1509 120.068 28.8596 120.691 28.2637C121.313 27.6677 121.639 26.9129 121.639 25.9859C121.639 25.0589 121.327 24.304 120.691 23.7081C120.068 23.1121 119.289 22.8076 118.384 22.8076C117.478 22.8076 116.7 23.0989 116.077 23.6948C115.454 24.304 115.129 25.0589 115.129 25.9859C115.129 26.9129 115.454 27.6677 116.077 28.2637Z" fill="black" stroke="white" stroke-width="0.268319" stroke-miterlimit="10"/>
<path d="M124.286 29.9575V22.0117H125.616L129.749 28.1962H129.791L129.749 26.66V22.0117H130.838V29.9575H129.706L125.39 23.4817H125.348L125.39 25.0179V29.9575H124.286Z" fill="black" stroke="white" stroke-width="0.268319" stroke-miterlimit="10"/>
<path d="M32.0973 22.7299C31.6869 23.1404 31.4463 23.7761 31.4463 24.5839V53.8774C31.4463 54.6984 31.6869 55.3341 32.0973 55.7314L32.1964 55.8241L49.7309 39.4293V39.2307V39.032L32.1964 22.6372L32.0973 22.7299Z" fill="url(#paint0_linear_705_293)"/>
<path d="M55.5768 44.8985L49.7319 39.4292V39.2305V39.0319L55.5768 33.5625L55.7042 33.6287L62.6247 37.3103C64.606 38.3565 64.606 40.0781 62.6247 41.1375L55.7042 44.8191L55.5768 44.8985Z" fill="url(#paint1_linear_705_293)"/>
<path d="M55.7029 44.8322L49.7307 39.2305L32.0972 55.7312C32.7482 56.3801 33.8237 56.4596 35.0408 55.8106L55.7029 44.8322Z" fill="url(#paint2_linear_705_293)"/>
<path d="M55.7043 33.6416L35.0281 22.6499C33.811 22.001 32.7355 22.0805 32.0845 22.7294L49.7321 39.2301L55.7043 33.6416Z" fill="url(#paint3_linear_705_293)"/>
<path opacity="0.2" d="M55.5751 44.6982L35.0262 55.6237C33.8798 56.2328 32.8467 56.1931 32.1957 55.6369L32.0967 55.7296L32.1957 55.8223C32.8609 56.3785 33.8798 56.4182 35.0262 55.8091L55.7024 44.8174L55.5751 44.6982Z" fill="black"/>
<path opacity="0.12" d="M32.0959 55.5444C31.6854 55.1339 31.4448 54.4982 31.4448 53.6904V53.8891C31.4448 54.7101 31.6854 55.3458 32.0959 55.7431L32.195 55.6504L32.0959 55.5444Z" fill="black"/>
<path opacity="0.12" d="M62.6239 40.952L55.562 44.6998L55.6894 44.819L62.6098 41.1374C63.6004 40.6077 64.0958 39.9191 64.0958 39.2305C64.025 39.8529 63.5297 40.4753 62.6239 40.952Z" fill="black"/>
<path opacity="0.25" d="M35.0278 22.8342L62.6246 37.5074C63.5162 37.9841 64.0257 38.5933 64.1106 39.2289C64.1106 38.5403 63.6153 37.8384 62.6246 37.322L35.0278 22.6488C33.0465 21.6026 31.4331 22.4766 31.4331 24.5955V24.7941C31.4331 22.662 33.0606 21.788 35.0278 22.8342Z" fill="white"/>
</g>
<defs>
<filter id="filter0_d_705_293" x="0.229076" y="0.171122" width="226.688" height="88.8056" filterUnits="userSpaceOnUse" color-interpolation-filters="sRGB">
<feFlood flood-opacity="0" result="BackgroundImageFix"/>
<feColorMatrix in="SourceAlpha" type="matrix" values="0 0 0 0 0 0 0 0 0 0 0 0 0 0 0 0 0 0 127 0" result="hardAlpha"/>
<feOffset dy="4.67398"/>
<feGaussianBlur stdDeviation="8.95846"/>
<feComposite in2="hardAlpha" operator="out"/>
<feColorMatrix type="matrix" values="0 0 0 0 0 0 0 0 0 0 0 0 0 0 0 0 0 0 0.08 0"/>
<feBlend mode="normal" in2="BackgroundImageFix" result="effect1_dropShadow_705_293"/>
<feBlend mode="normal" in="SourceGraphic" in2="effect1_dropShadow_705_293" result="shape"/>
</filter>
<linearGradient id="paint0_linear_705_293" x1="48.1736" y1="24.2791" x2="25.9977" y2="47.9776" gradientUnits="userSpaceOnUse">
<stop stop-color="#00A0FF"/>
<stop offset="0.00657445" stop-color="#00A1FF"/>
<stop offset="0.2601" stop-color="#00BEFF"/>
<stop offset="0.5122" stop-color="#00D2FF"/>
<stop offset="0.7604" stop-color="#00DFFF"/>
<stop offset="1" stop-color="#00E3FF"/>
</linearGradient>
<linearGradient id="paint1_linear_705_293" x1="65.2065" y1="39.2325" x2="30.9623" y2="39.2325" gradientUnits="userSpaceOnUse">
<stop stop-color="#FFE000"/>
<stop offset="0.4087" stop-color="#FFBD00"/>
<stop offset="0.7754" stop-color="#FFA500"/>
<stop offset="1" stop-color="#FF9C00"/>
</linearGradient>
<linearGradient id="paint2_linear_705_293" x1="52.4577" y1="42.2713" x2="22.3853" y2="74.4083" gradientUnits="userSpaceOnUse">
<stop stop-color="#FF3A44"/>
<stop offset="1" stop-color="#C31162"/>
</linearGradient>
<linearGradient id="paint3_linear_705_293" x1="27.6509" y1="12.9777" x2="41.0796" y2="27.3281" gradientUnits="userSpaceOnUse">
<stop stop-color="#32A071"/>
<stop offset="0.0685" stop-color="#2DA771"/>
<stop offset="0.4762" stop-color="#15CF74"/>
<stop offset="0.8009" stop-color="#06E775"/>
<stop offset="1" stop-color="#00F076"/>
</linearGradient>
</defs>
</svg>
