<svg width="152" height="42" viewBox="0 0 152 42" fill="none" xmlns="http://www.w3.org/2000/svg">
<g clip-path="url(#clip0_845_587)">
<g filter="url(#filter0_d_845_587)">
<rect x="0.847656" y="0.5" width="150.324" height="41" rx="8.76471" stroke="white"/>
<path d="M76.1557 22.3046C73.5188 22.3046 71.3644 24.1841 71.3644 26.7671C71.3644 29.3396 73.5188 31.2297 76.1557 31.2297C78.7926 31.2297 80.947 29.3396 80.947 26.7671C80.947 24.1841 78.7926 22.3046 76.1557 22.3046ZM76.1557 29.4761C74.7082 29.4761 73.4627 28.3631 73.4627 26.7671C73.4627 25.1606 74.7082 24.0581 76.1557 24.0581C77.6032 24.0581 78.8487 25.1606 78.8487 26.7671C78.8487 28.3631 77.592 29.4761 76.1557 29.4761ZM65.6978 22.3046C63.0609 22.3046 60.9065 24.1841 60.9065 26.7671C60.9065 29.3396 63.0609 31.2297 65.6978 31.2297C68.3347 31.2297 70.4891 29.3396 70.4891 26.7671C70.4891 24.1841 68.3347 22.3046 65.6978 22.3046ZM65.6978 29.4761C64.2503 29.4761 63.0048 28.3631 63.0048 26.7671C63.0048 25.1606 64.2503 24.0581 65.6978 24.0581C67.1453 24.0581 68.3908 25.1606 68.3908 26.7671C68.3908 28.3631 67.1453 29.4761 65.6978 29.4761ZM53.2651 23.6801V25.5701H58.1125C57.9666 26.6306 57.5851 27.4181 57.0128 27.9536C56.3059 28.6151 55.2063 29.3397 53.2763 29.3397C50.2915 29.3397 47.9576 27.0926 47.9576 24.2996C47.9576 21.5066 50.2915 19.2596 53.2763 19.2596C54.8809 19.2596 56.0591 19.8476 56.9231 20.6141L58.3481 19.2806C57.1363 18.1991 55.5317 17.3696 53.2651 17.3696C49.1807 17.3696 45.7471 20.4776 45.7471 24.3101C45.7471 28.1321 49.1807 31.2507 53.2651 31.2507C55.4756 31.2507 57.1363 30.5787 58.4379 29.3081C59.7732 28.0586 60.1884 26.2946 60.1884 24.8771C60.1884 24.4361 60.1547 24.0266 60.0761 23.6906H53.2651V23.6801ZM104.107 25.1501C103.714 24.1526 102.502 22.3046 100.023 22.3046C97.5651 22.3046 95.5229 24.1106 95.5229 26.7671C95.5229 29.2661 97.5427 31.2297 100.258 31.2297C102.446 31.2297 103.714 29.9802 104.23 29.2557L102.603 28.2371C102.065 28.9826 101.324 29.4761 100.258 29.4761C99.1922 29.4761 98.4291 29.0142 97.9466 28.1216L104.331 25.6541L104.107 25.1501ZM97.5988 26.6411C97.5427 24.9191 99.0239 24.0371 100.09 24.0371C100.92 24.0371 101.627 24.4256 101.863 24.9821L97.5988 26.6411ZM92.4147 30.9672H94.5131V17.8421H92.4147V30.9672ZM88.9812 23.3021H88.9026C88.4313 22.7771 87.5337 22.3046 86.3891 22.3046C83.9991 22.3046 81.811 24.2681 81.811 26.7881C81.811 29.2872 83.9991 31.2402 86.3891 31.2402C87.5224 31.2402 88.4313 30.7677 88.9026 30.2217H88.9699V30.8622C88.9699 32.5737 87.9937 33.4872 86.4228 33.4872C85.1436 33.4872 84.3469 32.6262 84.0215 31.9017L82.1925 32.6157C82.7199 33.8022 84.1113 35.2512 86.4228 35.2512C88.8802 35.2512 90.956 33.8967 90.956 30.5997V22.5776H88.9699V23.3021H88.9812ZM86.5687 29.4761C85.1212 29.4761 83.9093 28.3421 83.9093 26.7881C83.9093 25.2131 85.1212 24.0686 86.5687 24.0686C87.9937 24.0686 89.1158 25.2236 89.1158 26.7881C89.127 28.3421 88.0049 29.4761 86.5687 29.4761ZM113.936 17.8421H108.921V30.9672H111.019V25.9901H113.948C116.27 25.9901 118.548 24.4151 118.548 21.9161C118.548 19.4171 116.248 17.8421 113.936 17.8421ZM113.981 24.1631H111.008V19.6586H113.981C115.552 19.6586 116.439 20.8766 116.439 21.9056C116.439 22.9346 115.552 24.1631 113.981 24.1631ZM126.93 22.2836C125.415 22.2836 123.844 22.9136 123.194 24.2891L125.056 25.0136C125.449 24.2891 126.19 24.0476 126.964 24.0476C128.052 24.0476 129.152 24.6566 129.163 25.7381V25.8746C128.782 25.6751 127.974 25.3706 126.975 25.3706C124.967 25.3706 122.936 26.3996 122.936 28.3211C122.936 30.0746 124.574 31.2087 126.414 31.2087C127.817 31.2087 128.602 30.6207 129.085 29.9277H129.152V30.9462H131.172V25.9166C131.183 23.5856 129.32 22.2836 126.93 22.2836ZM126.672 29.4761C125.988 29.4761 125.034 29.1507 125.034 28.3631C125.034 27.3551 126.223 26.9666 127.256 26.9666C128.176 26.9666 128.613 27.1556 129.163 27.4076C129.006 28.6151 127.884 29.4761 126.672 29.4761ZM138.544 22.5671L136.143 28.2581H136.075L133.584 22.5671H131.329L135.065 30.5262L132.933 34.9467H135.121L140.878 22.5671H138.544ZM119.693 30.9672H121.791V17.8421H119.693V30.9672Z" fill="white"/>
<path d="M52.9058 10.2211C52.9058 11.1031 52.6253 11.8066 52.0642 12.3211C51.4359 12.9406 50.6055 13.2556 49.5957 13.2556C48.6194 13.2556 47.8003 12.9406 47.1158 12.3106C46.4314 11.6806 46.0947 10.8931 46.0947 9.96912C46.0947 9.03462 46.4314 8.25762 47.1158 7.62762C47.8003 6.99762 48.6194 6.68262 49.5957 6.68262C50.0782 6.68262 50.5382 6.76662 50.9758 6.94512C51.4134 7.12362 51.7613 7.35462 52.0306 7.64862L51.4359 8.20512C50.987 7.71162 50.3811 7.45962 49.5957 7.45962C48.8887 7.45962 48.2716 7.69062 47.7554 8.16312C47.2393 8.62512 46.9812 9.23412 46.9812 9.97962C46.9812 10.7251 47.2393 11.3341 47.7554 11.7961C48.2716 12.2581 48.8887 12.4996 49.5957 12.4996C50.3475 12.4996 50.9758 12.2686 51.4808 11.7961C51.8062 11.4916 51.9969 11.0611 52.0418 10.5151H49.5957V9.74862H52.8609C52.8834 9.91662 52.9058 10.0741 52.9058 10.2211Z" fill="white" stroke="white" stroke-width="0.212744" stroke-miterlimit="10"/>
<path d="M58.0783 7.59585H55.0149V9.59085H57.7753V10.3468H55.0149V12.3418H58.0783V13.1188H54.1509V6.81885H58.0783V7.59585Z" fill="white" stroke="white" stroke-width="0.212744" stroke-miterlimit="10"/>
<path d="M61.7252 13.1188H60.8612V7.59585H58.9761V6.81885H63.5991V7.59585H61.714V13.1188H61.7252Z" fill="white" stroke="white" stroke-width="0.212744" stroke-miterlimit="10"/>
<path d="M66.9541 13.1188V6.81885H67.8181V13.1188H66.9541Z" fill="white" stroke="white" stroke-width="0.212744" stroke-miterlimit="10"/>
<path d="M71.6564 13.1188H70.7923V7.59585H68.9072V6.81885H73.5303V7.59585H71.6451V13.1188H71.6564Z" fill="white" stroke="white" stroke-width="0.212744" stroke-miterlimit="10"/>
<path d="M82.2932 12.2996C81.6312 12.9401 80.8121 13.2551 79.8247 13.2551C78.8372 13.2551 78.0181 12.9401 77.3561 12.2996C76.6941 11.6591 76.3687 10.8821 76.3687 9.96863C76.3687 9.05513 76.6941 8.26763 77.3561 7.63763C78.0181 6.99713 78.8372 6.68213 79.8247 6.68213C80.8009 6.68213 81.62 6.99713 82.2932 7.63763C82.9553 8.27813 83.2919 9.05513 83.2919 9.96863C83.2807 10.8926 82.9553 11.6696 82.2932 12.2996ZM77.9957 11.7746C78.4894 12.2471 79.1065 12.4781 79.8247 12.4781C80.5428 12.4781 81.1599 12.2471 81.6536 11.7746C82.1474 11.3021 82.4054 10.7036 82.4054 9.96863C82.4054 9.23363 82.1586 8.63513 81.6536 8.16263C81.1599 7.69013 80.5428 7.44863 79.8247 7.44863C79.1065 7.44863 78.4894 7.67963 77.9957 8.15213C77.5019 8.63513 77.2439 9.23363 77.2439 9.96863C77.2439 10.7036 77.5019 11.3021 77.9957 11.7746Z" fill="white" stroke="white" stroke-width="0.212744" stroke-miterlimit="10"/>
<path d="M84.5044 13.1188V6.81885H85.5591L88.8356 11.7223H88.8693L88.8356 10.5043V6.81885H89.6996V13.1188H88.8019L85.3796 7.98435H85.3459L85.3796 9.20235V13.1188H84.5044Z" fill="white" stroke="white" stroke-width="0.212744" stroke-miterlimit="10"/>
<path d="M11.4092 7.38405C11.0838 7.70955 10.8931 8.21355 10.8931 8.85405V32.0801C10.8931 32.7311 11.0838 33.2351 11.4092 33.5501L11.4878 33.6236L25.3905 20.6246V20.4671V20.3096L11.4878 7.31055L11.4092 7.38405Z" fill="url(#paint0_linear_845_587)"/>
<path d="M30.0259 24.9627L25.3916 20.6261V20.4686V20.3111L30.0259 15.9746L30.1269 16.0271L35.6139 18.9461C37.1849 19.7756 37.1849 21.1406 35.6139 21.9807L30.1269 24.8997L30.0259 24.9627Z" fill="url(#paint1_linear_845_587)"/>
<path d="M30.1271 24.9098L25.3918 20.4683L11.4106 33.5513C11.9268 34.0658 12.7796 34.1288 13.7446 33.6143L30.1271 24.9098Z" fill="url(#paint2_linear_845_587)"/>
<path d="M30.1275 16.0366L13.7338 7.32164C12.7688 6.80714 11.9161 6.87014 11.3999 7.38464L25.3923 20.4677L30.1275 16.0366Z" fill="url(#paint3_linear_845_587)"/>
<path opacity="0.2" d="M30.0266 24.8037L13.7339 33.4662C12.825 33.9492 12.0058 33.9177 11.4897 33.4767L11.4111 33.5502L11.4897 33.6237C12.0171 34.0647 12.825 34.0962 13.7339 33.6132L30.1275 24.8982L30.0266 24.8037Z" fill="#010202"/>
<path opacity="0.12" d="M11.4098 33.4031C11.0843 33.0776 10.8936 32.5736 10.8936 31.9331V32.0906C10.8936 32.7416 11.0843 33.2456 11.4098 33.5606L11.4883 33.4871L11.4098 33.4031Z" fill="#010202"/>
<path opacity="0.12" d="M35.6139 21.8333L30.0146 24.8047L30.1156 24.8992L35.6027 21.9803C36.3881 21.5603 36.7809 21.0143 36.7809 20.4683C36.7247 20.9618 36.332 21.4553 35.6139 21.8333Z" fill="#010202"/>
<path opacity="0.25" d="M13.7339 7.46883L35.6148 19.1028C36.3217 19.4808 36.7257 19.9638 36.793 20.4678C36.793 19.9218 36.4002 19.3653 35.6148 18.9558L13.7339 7.32183C12.163 6.49233 10.8838 7.18533 10.8838 8.86533V9.02283C10.8838 7.33233 12.1742 6.63933 13.7339 7.46883Z" fill="white"/>
</g>
</g>
<defs>
<filter id="filter0_d_845_587" x="-13.8582" y="-10.5" width="179.735" height="70.4118" filterUnits="userSpaceOnUse" color-interpolation-filters="sRGB">
<feFlood flood-opacity="0" result="BackgroundImageFix"/>
<feColorMatrix in="SourceAlpha" type="matrix" values="0 0 0 0 0 0 0 0 0 0 0 0 0 0 0 0 0 0 127 0" result="hardAlpha"/>
<feOffset dy="3.70588"/>
<feGaussianBlur stdDeviation="7.10294"/>
<feComposite in2="hardAlpha" operator="out"/>
<feColorMatrix type="matrix" values="0 0 0 0 0 0 0 0 0 0 0 0 0 0 0 0 0 0 0.08 0"/>
<feBlend mode="normal" in2="BackgroundImageFix" result="effect1_dropShadow_845_587"/>
<feBlend mode="normal" in="SourceGraphic" in2="effect1_dropShadow_845_587" result="shape"/>
</filter>
<linearGradient id="paint0_linear_845_587" x1="24.1558" y1="8.61234" x2="6.57298" y2="27.4023" gradientUnits="userSpaceOnUse">
<stop stop-color="#00A0FF"/>
<stop offset="0.00657445" stop-color="#00A1FF"/>
<stop offset="0.2601" stop-color="#00BEFF"/>
<stop offset="0.5122" stop-color="#00D2FF"/>
<stop offset="0.7604" stop-color="#00DFFF"/>
<stop offset="1" stop-color="#00E3FF"/>
</linearGradient>
<linearGradient id="paint1_linear_845_587" x1="37.661" y1="20.4702" x2="10.5096" y2="20.4702" gradientUnits="userSpaceOnUse">
<stop stop-color="#FFE000"/>
<stop offset="0.4087" stop-color="#FFBD00"/>
<stop offset="0.7754" stop-color="#FFA500"/>
<stop offset="1" stop-color="#FF9C00"/>
</linearGradient>
<linearGradient id="paint2_linear_845_587" x1="27.554" y1="22.8793" x2="3.71034" y2="48.3599" gradientUnits="userSpaceOnUse">
<stop stop-color="#FF3A44"/>
<stop offset="1" stop-color="#C31162"/>
</linearGradient>
<linearGradient id="paint3_linear_845_587" x1="7.88463" y1="-0.347254" x2="18.5319" y2="11.0309" gradientUnits="userSpaceOnUse">
<stop stop-color="#32A071"/>
<stop offset="0.0685" stop-color="#2DA771"/>
<stop offset="0.4762" stop-color="#15CF74"/>
<stop offset="0.8009" stop-color="#06E775"/>
<stop offset="1" stop-color="#00F076"/>
</linearGradient>
<clipPath id="clip0_845_587">
<rect width="151.324" height="42" fill="white" transform="translate(0.347656)"/>
</clipPath>
</defs>
</svg>
