<svg width="191" height="54" viewBox="0 0 191 54" fill="none" xmlns="http://www.w3.org/2000/svg">
<g clip-path="url(#clip0_970_371)">
<g filter="url(#filter0_d_970_371)">
<rect x="0.145996" y="0.414062" width="190.854" height="52.9718" rx="11.6849" fill="white"/>
<path d="M95.7581 28.5465C92.4323 28.5465 89.7151 30.9169 89.7151 34.1747C89.7151 37.4192 92.4323 39.803 95.7581 39.803C99.0838 39.803 101.801 37.4192 101.801 34.1747C101.801 30.9169 99.0838 28.5465 95.7581 28.5465ZM95.7581 37.5914C93.9325 37.5914 92.3616 36.1876 92.3616 34.1747C92.3616 32.1485 93.9325 30.758 95.7581 30.758C97.5837 30.758 99.1546 32.1485 99.1546 34.1747C99.1546 36.1876 97.5696 37.5914 95.7581 37.5914ZM82.5683 28.5465C79.2425 28.5465 76.5253 30.9169 76.5253 34.1747C76.5253 37.4192 79.2425 39.803 82.5683 39.803C85.894 39.803 88.6112 37.4192 88.6112 34.1747C88.6112 30.9169 85.894 28.5465 82.5683 28.5465ZM82.5683 37.5914C80.7427 37.5914 79.1718 36.1876 79.1718 34.1747C79.1718 32.1485 80.7427 30.758 82.5683 30.758C84.3939 30.758 85.9648 32.1485 85.9648 34.1747C85.9648 36.1876 84.3939 37.5914 82.5683 37.5914ZM66.8877 30.2813V32.665H73.0014C72.8175 34.0026 72.3363 34.9958 71.6145 35.6712C70.7229 36.5055 69.336 37.4192 66.9019 37.4192C63.1374 37.4192 60.1937 34.5852 60.1937 31.0626C60.1937 27.54 63.1374 24.706 66.9019 24.706C68.9256 24.706 70.4116 25.4476 71.5013 26.4143L73.2986 24.7325C71.7702 23.3685 69.7464 22.3223 66.8877 22.3223C61.7363 22.3223 57.4058 26.2422 57.4058 31.0759C57.4058 35.8963 61.7363 39.8295 66.8877 39.8295C69.6757 39.8295 71.7702 38.9819 73.4118 37.3795C75.0959 35.8036 75.6196 33.5788 75.6196 31.791C75.6196 31.2348 75.5771 30.7183 75.4781 30.2945H66.8877V30.2813ZM131.011 32.1353C130.516 30.8772 128.987 28.5465 125.86 28.5465C122.76 28.5465 120.185 30.8242 120.185 34.1747C120.185 37.3265 122.732 39.803 126.157 39.803C128.917 39.803 130.516 38.2271 131.167 37.3133L129.115 36.0287C128.435 36.969 127.501 37.5914 126.157 37.5914C124.812 37.5914 123.85 37.0087 123.242 35.8831L131.294 32.771L131.011 32.1353ZM122.803 34.0158C122.732 31.844 124.6 30.7315 125.945 30.7315C126.992 30.7315 127.883 31.2215 128.181 31.9234L122.803 34.0158ZM116.265 39.4719H118.911V22.9182H116.265V39.4719ZM111.934 29.8045H111.835C111.241 29.1424 110.108 28.5465 108.665 28.5465C105.65 28.5465 102.891 31.0229 102.891 34.2012C102.891 37.353 105.65 39.8162 108.665 39.8162C110.094 39.8162 111.241 39.2203 111.835 38.5317H111.92V39.3395C111.92 41.4981 110.689 42.6502 108.707 42.6502C107.094 42.6502 106.089 41.5643 105.679 40.6505L103.372 41.551C104.037 43.0475 105.792 44.875 108.707 44.875C111.807 44.875 114.425 43.1667 114.425 39.0084V28.8908H111.92V29.8045H111.934ZM108.891 37.5914C107.066 37.5914 105.537 36.1612 105.537 34.2012C105.537 32.2148 107.066 30.7713 108.891 30.7713C110.689 30.7713 112.104 32.228 112.104 34.2012C112.118 36.1612 110.703 37.5914 108.891 37.5914ZM143.408 22.9182H137.082V39.4719H139.729V33.1947H143.423C146.352 33.1947 149.225 31.2083 149.225 28.0565C149.225 24.9046 146.324 22.9182 143.408 22.9182ZM143.465 30.8905H139.715V25.2092H143.465C145.446 25.2092 146.564 26.7454 146.564 28.0432C146.564 29.341 145.446 30.8905 143.465 30.8905ZM159.797 28.52C157.886 28.52 155.905 29.3145 155.084 31.0494L157.433 31.9631C157.928 31.0494 158.863 30.7448 159.839 30.7448C161.212 30.7448 162.599 31.5129 162.613 32.8769V33.0491C162.132 32.7974 161.113 32.4134 159.853 32.4134C157.32 32.4134 154.758 33.7112 154.758 36.1347C154.758 38.3462 156.825 39.7765 159.146 39.7765C160.915 39.7765 161.905 39.0349 162.514 38.1608H162.599V39.4454H165.146V33.102C165.16 30.1621 162.811 28.52 159.797 28.52ZM159.471 37.5914C158.608 37.5914 157.405 37.1809 157.405 36.1876C157.405 34.9163 158.905 34.4263 160.207 34.4263C161.367 34.4263 161.919 34.6647 162.613 34.9825C162.415 36.5055 160.999 37.5914 159.471 37.5914ZM174.444 28.8775L171.415 36.0552H171.331L168.189 28.8775H165.344L170.057 38.9157L167.368 44.491H170.128L177.388 28.8775H174.444ZM150.668 39.4719H153.315V22.9182H150.668V39.4719Z" fill="black"/>
<path d="M66.4336 13.3041C66.4336 14.4165 66.0798 15.3038 65.3722 15.9527C64.5797 16.734 63.5324 17.1313 62.2587 17.1313C61.0275 17.1313 59.9944 16.734 59.1311 15.9394C58.2678 15.1448 57.8433 14.1516 57.8433 12.9862C57.8433 11.8076 58.2678 10.8276 59.1311 10.0331C59.9944 9.23848 61.0275 8.84119 62.2587 8.84119C62.8673 8.84119 63.4475 8.94713 63.9995 9.17226C64.5514 9.39739 64.9901 9.68874 65.3298 10.0595L64.5797 10.7614C64.0136 10.139 63.2494 9.82117 62.2587 9.82117C61.3672 9.82117 60.5888 10.1125 59.9378 10.7084C59.2868 11.2911 58.9613 12.0592 58.9613 12.9995C58.9613 13.9397 59.2868 14.7078 59.9378 15.2905C60.5888 15.8732 61.3672 16.1778 62.2587 16.1778C63.2069 16.1778 63.9995 15.8864 64.6363 15.2905C65.0467 14.9065 65.2873 14.3635 65.3439 13.6749H62.2587V12.7081H66.377C66.4053 12.92 66.4336 13.1187 66.4336 13.3041Z" fill="black" stroke="white" stroke-width="0.268319" stroke-miterlimit="10"/>
<path d="M72.9573 9.9917H69.0937V12.5079H72.5752V13.4613H69.0937V15.9775H72.9573V16.9575H68.0039V9.01172H72.9573V9.9917V9.9917Z" fill="black" stroke="white" stroke-width="0.268319" stroke-miterlimit="10"/>
<path d="M77.5571 16.9575H76.4674V9.9917H74.0898V9.01172H79.9206V9.9917H77.543V16.9575H77.5571Z" fill="black" stroke="white" stroke-width="0.268319" stroke-miterlimit="10"/>
<path d="M84.1523 16.9575V9.01172H85.242V16.9575H84.1523Z" fill="black" stroke="white" stroke-width="0.268319" stroke-miterlimit="10"/>
<path d="M90.0811 16.9575H88.9913V9.9917H86.6138V9.01172H92.4445V9.9917H90.0669V16.9575H90.0811Z" fill="black" stroke="white" stroke-width="0.268319" stroke-miterlimit="10"/>
<path d="M103.497 15.9258C102.662 16.7336 101.629 17.1309 100.384 17.1309C99.1384 17.1309 98.1052 16.7336 97.2703 15.9258C96.4353 15.118 96.0249 14.138 96.0249 12.9859C96.0249 11.8337 96.4353 10.8405 97.2703 10.0459C98.1052 9.23811 99.1384 8.84082 100.384 8.84082C101.615 8.84082 102.648 9.23811 103.497 10.0459C104.332 10.8538 104.757 11.8337 104.757 12.9859C104.743 14.1512 104.332 15.1312 103.497 15.9258ZM98.0769 15.2637C98.6996 15.8596 99.478 16.1509 100.384 16.1509C101.289 16.1509 102.068 15.8596 102.691 15.2637C103.313 14.6677 103.639 13.9129 103.639 12.9859C103.639 12.0589 103.327 11.304 102.691 10.7081C102.068 10.1121 101.289 9.80756 100.384 9.80756C99.478 9.80756 98.6996 10.0989 98.0769 10.6948C97.4543 11.304 97.1288 12.0589 97.1288 12.9859C97.1288 13.9129 97.4543 14.6677 98.0769 15.2637Z" fill="black" stroke="white" stroke-width="0.268319" stroke-miterlimit="10"/>
<path d="M106.286 16.9575V9.01172H107.616L111.749 15.1962H111.791L111.749 13.66V9.01172H112.838V16.9575H111.706L107.39 10.4817H107.348L107.39 12.0179V16.9575H106.286Z" fill="black" stroke="white" stroke-width="0.268319" stroke-miterlimit="10"/>
<path d="M14.0973 9.72991C13.6869 10.1404 13.4463 10.7761 13.4463 11.5839V40.8774C13.4463 41.6984 13.6869 42.3341 14.0973 42.7314L14.1964 42.8241L31.7309 26.4293V26.2307V26.032L14.1964 9.63721L14.0973 9.72991Z" fill="url(#paint0_linear_970_371)"/>
<path d="M37.5768 31.8985L31.7319 26.4292V26.2305V26.0319L37.5768 20.5625L37.7042 20.6287L44.6247 24.3103C46.606 25.3565 46.606 27.0781 44.6247 28.1375L37.7042 31.8191L37.5768 31.8985Z" fill="url(#paint1_linear_970_371)"/>
<path d="M37.7029 31.8322L31.7307 26.2305L14.0972 42.7312C14.7482 43.3801 15.8237 43.4596 17.0408 42.8106L37.7029 31.8322Z" fill="url(#paint2_linear_970_371)"/>
<path d="M37.7043 20.6416L17.0281 9.64994C15.811 9.00104 14.7355 9.08049 14.0845 9.7294L31.7321 26.2301L37.7043 20.6416Z" fill="url(#paint3_linear_970_371)"/>
<path opacity="0.2" d="M37.5751 31.6982L17.0262 42.6237C15.8798 43.2328 14.8467 43.1931 14.1957 42.6369L14.0967 42.7296L14.1957 42.8223C14.8609 43.3785 15.8798 43.4182 17.0262 42.8091L37.7024 31.8174L37.5751 31.6982Z" fill="black"/>
<path opacity="0.12" d="M14.0959 42.5444C13.6854 42.1339 13.4448 41.4982 13.4448 40.6904V40.8891C13.4448 41.7101 13.6854 42.3458 14.0959 42.7431L14.195 42.6504L14.0959 42.5444Z" fill="black"/>
<path opacity="0.12" d="M44.6239 27.952L37.562 31.6998L37.6894 31.819L44.6098 28.1374C45.6004 27.6077 46.0958 26.9191 46.0958 26.2305C46.025 26.8529 45.5297 27.4753 44.6239 27.952Z" fill="black"/>
<path opacity="0.25" d="M17.0278 9.83418L44.6246 24.5074C45.5162 24.9841 46.0257 25.5933 46.1106 26.2289C46.1106 25.5403 45.6153 24.8384 44.6246 24.322L17.0278 9.64878C15.0465 8.60259 13.4331 9.47662 13.4331 11.5955V11.7941C13.4331 9.66202 15.0606 8.78799 17.0278 9.83418Z" fill="white"/>
</g>
</g>
<defs>
<filter id="filter0_d_970_371" x="-17.7709" y="-12.8289" width="226.688" height="88.8056" filterUnits="userSpaceOnUse" color-interpolation-filters="sRGB">
<feFlood flood-opacity="0" result="BackgroundImageFix"/>
<feColorMatrix in="SourceAlpha" type="matrix" values="0 0 0 0 0 0 0 0 0 0 0 0 0 0 0 0 0 0 127 0" result="hardAlpha"/>
<feOffset dy="4.67398"/>
<feGaussianBlur stdDeviation="8.95846"/>
<feComposite in2="hardAlpha" operator="out"/>
<feColorMatrix type="matrix" values="0 0 0 0 0 0 0 0 0 0 0 0 0 0 0 0 0 0 0.08 0"/>
<feBlend mode="normal" in2="BackgroundImageFix" result="effect1_dropShadow_970_371"/>
<feBlend mode="normal" in="SourceGraphic" in2="effect1_dropShadow_970_371" result="shape"/>
</filter>
<linearGradient id="paint0_linear_970_371" x1="30.1736" y1="11.2791" x2="7.99766" y2="34.9776" gradientUnits="userSpaceOnUse">
<stop stop-color="#00A0FF"/>
<stop offset="0.00657445" stop-color="#00A1FF"/>
<stop offset="0.2601" stop-color="#00BEFF"/>
<stop offset="0.5122" stop-color="#00D2FF"/>
<stop offset="0.7604" stop-color="#00DFFF"/>
<stop offset="1" stop-color="#00E3FF"/>
</linearGradient>
<linearGradient id="paint1_linear_970_371" x1="47.2065" y1="26.2325" x2="12.9623" y2="26.2325" gradientUnits="userSpaceOnUse">
<stop stop-color="#FFE000"/>
<stop offset="0.4087" stop-color="#FFBD00"/>
<stop offset="0.7754" stop-color="#FFA500"/>
<stop offset="1" stop-color="#FF9C00"/>
</linearGradient>
<linearGradient id="paint2_linear_970_371" x1="34.4577" y1="29.2713" x2="4.38529" y2="61.4083" gradientUnits="userSpaceOnUse">
<stop stop-color="#FF3A44"/>
<stop offset="1" stop-color="#C31162"/>
</linearGradient>
<linearGradient id="paint3_linear_970_371" x1="9.6509" y1="-0.0223144" x2="23.0796" y2="14.3281" gradientUnits="userSpaceOnUse">
<stop stop-color="#32A071"/>
<stop offset="0.0685" stop-color="#2DA771"/>
<stop offset="0.4762" stop-color="#15CF74"/>
<stop offset="0.8009" stop-color="#06E775"/>
<stop offset="1" stop-color="#00F076"/>
</linearGradient>
<clipPath id="clip0_970_371">
<rect width="190.854" height="52.9718" fill="white" transform="translate(0.145996 0.414062)"/>
</clipPath>
</defs>
</svg>
