<svg width="209" height="89" viewBox="0 0 209 89" fill="none" xmlns="http://www.w3.org/2000/svg">
<g filter="url(#filter0_d_705_314)">
<rect x="18" y="13.4141" width="172.937" height="52.9718" rx="11.6849" fill="white"/>
<path d="M53.2206 39.5932C53.1761 35.7667 56.5551 33.9022 56.7182 33.8187C54.8063 31.2027 51.8423 30.8409 50.8048 30.8131C48.315 30.5626 45.8993 32.2046 44.6396 32.2046C43.3502 32.2046 41.3939 30.827 39.2894 30.8688C36.5773 30.9105 34.043 32.3855 32.6647 34.6675C29.8044 39.3289 31.9385 46.1748 34.6803 49.9457C36.0586 51.7964 37.6592 53.8557 39.7637 53.7722C41.8237 53.6887 42.5944 52.5477 45.0694 52.5477C47.5295 52.5477 48.2409 53.7722 50.3899 53.7305C52.5981 53.7027 53.9912 51.8798 55.3102 50.0153C56.896 47.9003 57.5333 45.8131 57.5629 45.7157C57.4888 45.7018 53.265 44.1851 53.2206 39.5932Z" fill="black"/>
<path d="M49.1745 28.3377C50.286 27.0436 51.0418 25.2764 50.8195 23.4814C49.2189 23.551 47.2182 24.525 46.0622 25.7913C45.0396 26.9045 44.1355 28.7412 44.3727 30.4666C46.1659 30.5919 48.0185 29.6178 49.1745 28.3377Z" fill="black"/>
<path d="M79.2007 49.1109H72.1907L70.5012 53.7862H67.5371L74.1766 36.5043H77.2592L83.8987 53.7862H80.8753L79.2007 49.1109ZM72.9169 46.9541H78.4745L75.7327 39.3707H75.6586L72.9169 46.9541Z" fill="black"/>
<path d="M98.2607 47.4823C98.2607 51.3923 96.0229 53.9108 92.6587 53.9108C90.7469 53.9108 89.2352 53.1038 88.435 51.7123H88.3757V57.9461H85.6191V41.1789H88.2868V43.2801H88.3312C89.1019 41.9303 90.7321 41.0537 92.5994 41.0537C96.0229 41.0537 98.2607 43.5723 98.2607 47.4823ZM95.4301 47.4823C95.4301 44.9359 94.0221 43.2522 91.888 43.2522C89.7836 43.2522 88.3609 44.9637 88.3609 47.4823C88.3609 50.0147 89.7836 51.7262 91.888 51.7262C94.0221 51.7262 95.4301 50.0565 95.4301 47.4823Z" fill="black"/>
<path d="M113.02 47.4823C113.02 51.3923 110.782 53.9108 107.417 53.9108C105.506 53.9108 103.994 53.1038 103.194 51.7123H103.134V57.9461H100.393V41.1789H103.06V43.2801H103.105C103.875 41.9303 105.506 41.0537 107.373 41.0537C110.782 41.0537 113.02 43.5723 113.02 47.4823ZM110.189 47.4823C110.189 44.9359 108.781 43.2522 106.647 43.2522C104.542 43.2522 103.12 44.9637 103.12 47.4823C103.12 50.0147 104.542 51.7262 106.647 51.7262C108.796 51.7262 110.189 50.0565 110.189 47.4823Z" fill="black"/>
<path d="M122.787 48.9716C122.995 50.6831 124.758 51.8102 127.189 51.8102C129.515 51.8102 131.175 50.6831 131.175 49.1386C131.175 47.8028 130.168 46.9958 127.781 46.4392L125.395 45.8965C122.016 45.1312 120.445 43.6423 120.445 41.2351C120.445 38.2574 123.217 36.2119 127.144 36.2119C131.027 36.2119 133.695 38.2574 133.784 41.2351H130.998C130.834 39.5097 129.308 38.4661 127.1 38.4661C124.892 38.4661 123.365 39.5236 123.365 41.0542C123.365 42.2787 124.328 42.9883 126.7 43.5449L128.73 44.018C132.509 44.8529 134.08 46.2861 134.08 48.8047C134.08 52.0329 131.338 54.0644 126.981 54.0644C122.906 54.0644 120.149 52.0885 119.971 48.9577H122.787V48.9716Z" fill="black"/>
<path d="M140.038 38.2012V41.1789H142.587V43.2244H140.038V50.1677C140.038 51.2531 140.542 51.754 141.668 51.754C141.95 51.754 142.395 51.7123 142.572 51.6984V53.7299C142.261 53.7995 141.654 53.8551 141.046 53.8551C138.334 53.8551 137.267 52.895 137.267 50.46V43.2383H135.311V41.1928H137.267V38.2012H140.038Z" fill="black"/>
<path d="M144.055 47.4827C144.055 43.5171 146.545 41.0264 150.413 41.0264C154.296 41.0264 156.771 43.5171 156.771 47.4827C156.771 51.4623 154.31 53.9391 150.413 53.9391C146.53 53.9391 144.055 51.4623 144.055 47.4827ZM153.984 47.4827C153.984 44.7694 152.651 43.1553 150.427 43.1553C148.204 43.1553 146.871 44.7694 146.871 47.4827C146.871 50.21 148.19 51.8102 150.427 51.8102C152.665 51.8102 153.984 50.21 153.984 47.4827Z" fill="black"/>
<path d="M159.068 41.1792H161.692V43.322H161.751C162.166 41.9027 163.396 41.04 164.982 41.04C165.382 41.04 165.708 41.0957 165.93 41.1374V43.5586C165.708 43.4751 165.234 43.4055 164.7 43.4055C162.922 43.4055 161.825 44.5326 161.825 46.2997V53.7719H159.068V41.1792Z" fill="black"/>
<path d="M178.616 50.0848C178.245 52.3667 175.874 53.9391 172.836 53.9391C168.938 53.9391 166.508 51.4901 166.508 47.5384C166.508 43.5866 168.938 41.0264 172.717 41.0264C176.423 41.0264 178.764 43.4197 178.764 47.2462V48.1367H169.294V48.2898C169.294 50.4465 170.732 51.8519 172.91 51.8519C174.437 51.8519 175.637 51.1701 176.008 50.0848H178.616ZM169.309 46.3139H176.022C175.963 44.3798 174.644 43.1136 172.732 43.1136C170.835 43.1275 169.457 44.4215 169.309 46.3139Z" fill="black"/>
<path d="M72.5762 23.4951C75.1995 23.4951 76.7408 25.0118 76.7408 27.6139C76.7408 30.2716 75.2143 31.7883 72.5762 31.7883H69.375V23.4951H72.5762ZM70.7533 30.6194H72.4132C74.2658 30.6194 75.3329 29.5341 75.3329 27.6278C75.3329 25.7493 74.251 24.664 72.4132 24.664H70.7533V30.6194Z" fill="black"/>
<path d="M78.2832 28.6564C78.2832 26.6388 79.4837 25.4004 81.4251 25.4004C83.3666 25.4004 84.567 26.6249 84.567 28.6564C84.567 30.688 83.3666 31.9125 81.4251 31.9125C79.4837 31.9125 78.2832 30.688 78.2832 28.6564ZM83.2184 28.6564C83.2184 27.2928 82.5663 26.4997 81.4251 26.4997C80.284 26.4997 79.6319 27.2928 79.6319 28.6564C79.6319 30.0201 80.2691 30.8132 81.4251 30.8132C82.5811 30.8132 83.2184 30.0201 83.2184 28.6564Z" fill="black"/>
<path d="M92.9394 31.8026H91.5759L90.1976 27.1829H90.0939L88.7156 31.8026H87.367L85.5293 25.541H86.8631L88.0635 30.3276H88.1673L89.5456 25.541H90.8053L92.1836 30.3276H92.2873L93.4729 25.541H94.7919L92.9394 31.8026Z" fill="black"/>
<path d="M96.3184 25.5254H97.5929V26.5272H97.6967C98.0227 25.8315 98.6896 25.4141 99.6826 25.4141C101.165 25.4141 101.995 26.2489 101.995 27.7378V31.8009H100.676V28.0579C100.676 27.056 100.216 26.5551 99.238 26.5551C98.2598 26.5551 97.6374 27.1673 97.6374 28.1413V31.8009H96.3184V25.5254Z" fill="black"/>
<path d="M104.084 23.0908H105.403V31.8014H104.084V23.0908Z" fill="black"/>
<path d="M107.242 28.6564C107.242 26.6388 108.443 25.4004 110.384 25.4004C112.325 25.4004 113.526 26.6249 113.526 28.6564C113.526 30.688 112.325 31.9125 110.384 31.9125C108.428 31.9125 107.242 30.688 107.242 28.6564ZM112.177 28.6564C112.177 27.2928 111.525 26.4997 110.384 26.4997C109.243 26.4997 108.591 27.2928 108.591 28.6564C108.591 30.0201 109.228 30.8132 110.384 30.8132C111.525 30.8132 112.177 30.0201 112.177 28.6564Z" fill="black"/>
<path d="M114.918 30.0198C114.918 28.8928 115.807 28.2388 117.393 28.1553L119.201 28.0579V27.5152C119.201 26.8473 118.742 26.4855 117.838 26.4855C117.097 26.4855 116.593 26.736 116.444 27.1812H115.17C115.303 26.1098 116.385 25.4141 117.897 25.4141C119.572 25.4141 120.52 26.1933 120.52 27.5152V31.8009H119.245V30.9243H119.142C118.742 31.5505 118.015 31.9123 117.141 31.9123C115.852 31.8983 114.918 31.1748 114.918 30.0198ZM119.216 29.4911V28.9623L117.586 29.0597C116.667 29.1154 116.252 29.4076 116.252 29.9642C116.252 30.5347 116.77 30.8547 117.482 30.8547C118.475 30.8547 119.216 30.2703 119.216 29.4911Z" fill="black"/>
<path d="M122.254 28.6567C122.254 26.6808 123.336 25.4285 125.025 25.4285C125.944 25.4285 126.715 25.832 127.07 26.5277H127.174V23.0908H128.493V31.8014H127.219V30.8135H127.115C126.715 31.4953 125.944 31.9127 125.025 31.9127C123.321 31.8988 122.254 30.6465 122.254 28.6567ZM123.617 28.6567C123.617 29.9925 124.284 30.7856 125.396 30.7856C126.507 30.7856 127.189 29.9786 127.189 28.6567C127.189 27.3487 126.493 26.5277 125.396 26.5277C124.284 26.5417 123.617 27.3487 123.617 28.6567Z" fill="black"/>
<path d="M133.932 28.6564C133.932 26.6388 135.132 25.4004 137.074 25.4004C139.015 25.4004 140.215 26.6249 140.215 28.6564C140.215 30.688 139.015 31.9125 137.074 31.9125C135.132 31.9125 133.932 30.688 133.932 28.6564ZM138.867 28.6564C138.867 27.2928 138.215 26.4997 137.074 26.4997C135.932 26.4997 135.28 27.2928 135.28 28.6564C135.28 30.0201 135.918 30.8132 137.074 30.8132C138.215 30.8132 138.867 30.0201 138.867 28.6564Z" fill="black"/>
<path d="M141.994 25.5254H143.269V26.5272H143.372C143.698 25.8315 144.365 25.4141 145.358 25.4141C146.84 25.4141 147.67 26.2489 147.67 27.7378V31.8009H146.351V28.0579C146.351 27.056 145.892 26.5551 144.914 26.5551C143.936 26.5551 143.313 27.1673 143.313 28.1413V31.8009H141.994V25.5254Z" fill="black"/>
<path d="M155.111 23.9672V25.5534H156.563V26.597H155.111V29.8252C155.111 30.4792 155.392 30.7714 156.059 30.7714C156.267 30.7714 156.371 30.7575 156.563 30.7436V31.7732C156.356 31.8011 156.104 31.8428 155.852 31.8428C154.385 31.8428 153.807 31.3558 153.807 30.1452V26.6109H152.754V25.5673H153.807V23.9672H155.111Z" fill="black"/>
<path d="M158.341 23.0908H159.646V26.5417H159.749C160.075 25.8459 160.772 25.4146 161.78 25.4146C163.202 25.4146 164.077 26.2634 164.077 27.7522V31.8014H162.758V28.0583C162.758 27.0565 162.269 26.5556 161.335 26.5556C160.253 26.5556 159.66 27.1956 159.66 28.1418V31.8014H158.341V23.0908Z" fill="black"/>
<path d="M171.769 30.1033C171.473 31.2304 170.406 31.9123 168.879 31.9123C166.968 31.9123 165.797 30.6878 165.797 28.684C165.797 26.6803 166.997 25.4141 168.879 25.4141C170.732 25.4141 171.858 26.6107 171.858 28.5727V29.0041H167.145V29.0736C167.19 30.1729 167.872 30.8686 168.924 30.8686C169.724 30.8686 170.272 30.6043 170.51 30.1033H171.769ZM167.145 28.0857H170.51C170.48 27.0977 169.843 26.4577 168.865 26.4577C167.886 26.4577 167.22 27.1117 167.145 28.0857Z" fill="black"/>
</g>
<defs>
<filter id="filter0_d_705_314" x="0.0830803" y="0.171122" width="208.771" height="88.8056" filterUnits="userSpaceOnUse" color-interpolation-filters="sRGB">
<feFlood flood-opacity="0" result="BackgroundImageFix"/>
<feColorMatrix in="SourceAlpha" type="matrix" values="0 0 0 0 0 0 0 0 0 0 0 0 0 0 0 0 0 0 127 0" result="hardAlpha"/>
<feOffset dy="4.67398"/>
<feGaussianBlur stdDeviation="8.95846"/>
<feComposite in2="hardAlpha" operator="out"/>
<feColorMatrix type="matrix" values="0 0 0 0 0 0 0 0 0 0 0 0 0 0 0 0 0 0 0.08 0"/>
<feBlend mode="normal" in2="BackgroundImageFix" result="effect1_dropShadow_705_314"/>
<feBlend mode="normal" in="SourceGraphic" in2="effect1_dropShadow_705_314" result="shape"/>
</filter>
</defs>
</svg>
