<svg width="14" height="14" viewBox="0 0 14 14" fill="none" xmlns="http://www.w3.org/2000/svg">
<path d="M7 14C10.866 14 14 10.866 14 7C14 3.13401 10.866 0 7 0C3.13401 0 0 3.13401 0 7C0 10.866 3.13401 14 7 14Z" fill="#D80027"/>
<path d="M3.83086 4.26025L4.43516 6.11963H6.39023L4.80977 7.2708L5.41406 9.13018L3.83086 7.98174L2.24766 9.13018L2.85469 7.2708L1.27148 6.11963H3.22656L3.83086 4.26025Z" fill="#FFDA44"/>
<path d="M8.29873 10.8421L7.83662 10.2733L7.15303 10.5386L7.54951 9.92334L7.0874 9.35186L7.7956 9.54053L8.19482 8.92529L8.2331 9.65811L8.94404 9.84678L8.25771 10.1093L8.29873 10.8421Z" fill="#FFDA44"/>
<path d="M9.21748 9.17412L9.43623 8.47412L8.8374 8.05029L9.57021 8.03936L9.78623 7.33936L10.0241 8.03389L10.7569 8.02568L10.169 8.46318L10.4042 9.15771L9.80537 8.73389L9.21748 9.17412Z" fill="#FFDA44"/>
<path d="M10.4563 5.13828L10.1337 5.79727L10.6587 6.30859L9.93408 6.20469L9.61143 6.86094L9.48564 6.13906L8.7583 6.03516L9.40908 5.69336L9.2833 4.96875L9.8083 5.48008L10.4563 5.13828Z" fill="#FFDA44"/>
<path d="M8.31777 3.14209L8.26309 3.87217L8.94395 4.14834L8.23027 4.32334L8.17832 5.05615L7.79277 4.43272L7.0791 4.60772L7.55215 4.04717L7.16387 3.42646L7.84473 3.70264L8.31777 3.14209Z" fill="#FFDA44"/>
<circle cx="7" cy="7" r="6.75" stroke="white" stroke-width="0.5"/>
</svg>
