<svg width="14" height="14" viewBox="0 0 14 14" fill="none" xmlns="http://www.w3.org/2000/svg">
<path d="M7 14C10.866 14 14 10.866 14 7C14 3.13401 10.866 0 7 0C3.13401 0 0 3.13401 0 7C0 10.866 3.13401 14 7 14Z" fill="#338AF3"/>
<path d="M10.9565 7.07617H3.04346C3.04346 7.62247 3.51927 8.0653 4.06551 8.0653H4.03259C4.03259 8.61161 4.47542 9.05444 5.02172 9.05444C5.02172 9.60074 5.46455 10.0436 6.01086 10.0436H7.98912C8.53542 10.0436 8.97825 9.60074 8.97825 9.05444C9.52455 9.05444 9.96739 8.61161 9.96739 8.0653H9.93446C10.4807 8.0653 10.9565 7.62247 10.9565 7.07617Z" fill="#FFDA44"/>
<path d="M9.73901 5.78271C9.73901 7.29548 8.51264 8.52185 6.99987 8.52185C5.48708 8.52185 4.26074 7.29548 4.26074 5.78271" fill="#338AF3"/>
<path d="M9.09213 5.78275L8.23723 6.18489L8.69247 7.01286L7.76415 6.83526L7.64652 7.77304L6.99992 7.0833L6.3533 7.77304L6.23569 6.83526L5.30737 7.01281L5.76259 6.18487L4.90771 5.78275L5.76262 5.38063L5.30737 4.55269L6.23566 4.73026L6.35332 3.79248L6.99992 4.48223L7.64655 3.79248L7.76415 4.73026L8.6925 4.55269L8.23725 5.38066L9.09213 5.78275Z" fill="#FFDA44"/>
<circle cx="7" cy="7" r="6.75" stroke="white" stroke-width="0.5"/>
</svg>
