<svg width="14" height="14" viewBox="0 0 14 14" fill="none" xmlns="http://www.w3.org/2000/svg">
<path d="M7 14C10.866 14 14 10.866 14 7C14 3.13401 10.866 0 7 0C3.13401 0 0 3.13401 0 7C0 10.866 3.13401 14 7 14Z" fill="#D80027"/>
<path d="M6.7135 5.71973L7.28785 6.51119L8.218 6.20959L7.64275 7.00037L8.21702 7.79181L7.2872 7.48906L6.71197 8.27984L6.71257 7.302L5.78271 6.99925L6.71289 6.69765L6.7135 5.71973Z" fill="#F0F0F0"/>
<path d="M5.14583 8.97849C4.05329 8.97849 3.16757 8.09277 3.16757 7.00023C3.16757 5.90768 4.05329 5.02196 5.14583 5.02196C5.48648 5.02196 5.807 5.10812 6.08684 5.25974C5.64784 4.83039 5.04745 4.56543 4.38496 4.56543C3.04025 4.56543 1.9502 5.65552 1.9502 7.0002C1.9502 8.34488 3.04028 9.43497 4.38496 9.43497C5.0475 9.43497 5.64786 9.16998 6.08684 8.74066C5.807 8.89233 5.48648 8.97849 5.14583 8.97849Z" fill="#F0F0F0"/>
<circle cx="7" cy="7" r="6.75" stroke="white" stroke-width="0.5"/>
</svg>
